<?xml version="1.0" encoding="utf-8"?>
<svg version="1.1" id="Layer_1" x="0px" y="0px" width="100%" viewBox="0 0 502 95" enable-background="new 0 0 1030 396" xmlns="http://www.w3.org/2000/svg">
  <path fill="#092E71" opacity="1.000000" stroke="none" d="M 93.12 73.632 C 97.033 71.921 101.195 70.607 104.766 68.354 C 106.914 66.998 108.691 64.407 109.691 61.982 C 117.446 43.184 124.968 24.291 132.574 5.431 C 132.881 4.67 133.312 3.958 134.148 3.091 C 144.392 2.974 154.172 2.991 163.952 3.007 C 160.035 12.84 156.116 22.672 152.207 32.508 C 151.752 33.651 151.353 34.814 150.716 36.311 C 149.182 40.088 147.859 43.522 146.536 46.956 C 144.099 52.689 141.2 58.276 139.336 64.19 C 136.741 72.422 131.375 78.141 124.548 82.807 C 117.668 87.51 110.496 91.656 101.765 93.412 C 99.75 93.198 98.211 92.994 96.671 92.993 C 71.224 92.974 45.777 92.994 20.331 92.952 C 18.718 92.949 17.104 92.516 15.491 92.283 C 17.773 86.455 20.055 80.627 22.678 74.576 C 44.782 74.355 66.544 74.373 88.306 74.329 C 89.911 74.326 91.515 73.874 93.12 73.632 Z" style="transform-origin: -4px 47.118px;"/>
  <path fill="#0392BF" opacity="1.000000" stroke="none" d="M 38.446 53.911 C 28.428 53.733 18.541 52.738 9.158 48.898 C 7.588 48.256 6.006 47.446 4.706 46.378 C 1.78 43.97 0.363 41.209 2.673 36.729 C 5.254 31.724 9.819 28.712 14.41 25.97 C 26.292 18.875 38.962 13.42 52.043 8.961 C 60.545 6.063 69.144 3.452 77.709 0.743 C 78.349 0.541 79.065 0.583 79.957 1.054 C 78.642 1.694 77.329 2.343 76.008 2.974 C 66.649 7.446 56.979 11.48 49.522 19.003 C 42.881 25.703 45.958 30.207 52.366 33.287 C 59.77 36.845 67.9 37.805 76.028 38.341 C 86.052 39.004 96.083 39.58 106.698 40.23 C 104.974 43.898 103.187 47.788 101.291 51.625 C 101.054 52.105 100.256 52.556 99.693 52.59 C 91.71 53.063 83.722 53.462 75.155 53.887 C 62.532 53.901 50.489 53.906 38.446 53.911 Z" style="transform-origin: -4px 47.118px;"/>
  <path fill="#0A2E71" opacity="1.000000" stroke="none" d="M 277.903 63 C 279.738 58.607 281.46 54.426 283.16 50.297 C 286.785 50.297 290.268 50.297 294.264 50.297 C 291.119 58.097 288.107 65.568 284.668 74.096 C 289.33 73.62 293.411 73.597 297.247 72.617 C 298.81 72.217 300.245 69.921 301.037 68.17 C 303.32 63.118 305.297 57.923 307.286 52.743 C 307.959 50.988 308.869 50.013 310.892 50.123 C 313.352 50.257 315.825 50.155 319.01 50.155 C 315.833 58.162 312.843 65.702 309.687 73.658 C 313.519 73.658 316.835 73.933 320.084 73.581 C 323.311 73.232 325.288 70.947 326.481 67.98 C 328.59 62.736 330.778 57.523 332.836 52.259 C 333.445 50.699 334.3 50.027 336.021 50.119 C 338.584 50.256 341.16 50.154 344.442 50.154 C 343.136 53.306 341.993 55.985 340.91 58.689 C 339.001 63.458 337.138 68.247 335.238 73.02 C 333.046 78.527 328.278 80.976 323.04 81.637 C 317.349 82.354 311.497 81.8 305.435 81.8 C 305.5 80.663 305.554 79.719 305.63 78.407 C 304.79 78.889 304.168 79.412 303.454 79.627 C 300.85 80.409 298.235 81.601 295.587 81.709 C 288.466 81.997 281.325 81.815 274.192 81.796 C 273.106 81.794 272.02 81.668 270.501 81.572 C 273.042 75.168 275.415 69.19 277.903 63 Z" style="transform-origin: -4px 47.118px;"/>
  <path fill="#0A2E71" opacity="1.000000" stroke="none" d="M 175.713 68.771 C 170.463 68.242 166.345 69.696 162.828 74.228 C 174.509 74.228 185.684 74.228 197.491 74.228 C 196.464 76.83 195.758 78.92 194.786 80.879 C 194.53 81.394 193.451 81.755 192.749 81.757 C 176.523 81.791 160.298 81.768 144.072 81.743 C 143.773 81.743 143.475 81.604 143.181 81.532 C 143.389 78.529 144.113 77.672 155.396 67.131 C 153.156 66.974 151.2 66.837 148.097 66.62 C 150.117 64.191 151.406 62.286 153.038 60.743 C 158.483 55.596 164.597 51.526 172.028 49.79 C 172.724 49.628 173.451 49.526 174.164 49.525 C 183.982 49.515 193.8 49.522 203.619 49.546 C 204.32 49.548 205.021 49.712 205.714 49.8 C 205.368 55.438 203.822 56.98 198.62 56.982 C 191.489 56.984 184.352 57.165 177.229 56.911 C 172.887 56.757 170.082 58.828 167.029 62.52 C 177.438 62.52 187.224 62.52 197.133 62.52 C 195.549 68.769 195.549 68.77 189.97 68.771 C 185.319 68.772 180.668 68.771 175.713 68.771 Z" style="transform-origin: -4px 47.118px;"/>
  <path fill="#092E71" opacity="1.000000" stroke="none" d="M 469.905 74.358 C 477.626 74.358 485.037 74.358 492.381 74.358 C 492.484 74.94 492.599 75.163 492.541 75.324 C 490.215 81.807 490.213 81.807 483.413 81.807 C 469.663 81.807 455.913 81.81 442.162 81.799 C 440.964 81.798 439.766 81.701 438.013 81.624 C 440.902 75.25 445.838 71.46 451.262 67.136 C 448.668 66.965 446.715 66.836 444.159 66.667 C 445.038 65.132 445.488 63.874 446.321 62.967 C 452.003 56.79 458.624 52.057 466.924 50.031 C 467.815 49.814 468.729 49.548 469.633 49.545 C 479.455 49.513 489.276 49.525 499.098 49.546 C 499.787 49.548 500.475 49.722 501.522 49.865 C 500.734 51.983 500.254 54.014 499.223 55.71 C 498.758 56.476 497.2 56.91 496.131 56.923 C 488.068 57.023 480.002 57.073 471.94 56.942 C 467.851 56.875 465.381 59.153 462.375 62.512 C 472.924 62.512 482.666 62.512 492.469 62.512 C 491.446 68.485 491.115 68.77 485.596 68.771 C 479.91 68.772 474.22 68.892 468.539 68.732 C 464.297 68.613 461.407 70.789 458.761 74.358 C 462.372 74.358 465.984 74.358 469.905 74.358 Z" style="transform-origin: -4px 47.118px;"/>
  <path fill="#092E71" opacity="1.000000" stroke="none" d="M 398.315 50.244 C 394.417 59.982 390.505 69.714 386.635 79.464 C 385.985 81.102 385.015 81.921 383.153 81.833 C 380.482 81.707 377.801 81.801 374.647 81.801 C 375.591 79.087 376.411 76.731 377.38 73.947 C 375.882 73.866 374.701 73.748 373.52 73.746 C 366.384 73.736 359.246 73.665 352.115 73.85 C 350.995 73.879 349.096 74.956 348.935 75.808 C 347.815 81.713 343.9 82.506 338.954 81.813 C 338.065 81.688 337.162 81.667 335.742 81.558 C 338.877 73.923 342.152 66.731 344.771 59.308 C 346.612 54.088 350.53 51.874 355.681 50.142 C 370.243 50.171 384.279 50.207 398.315 50.244 M 380.668 66.468 C 381.763 63.663 382.858 60.859 384.115 57.641 C 376.056 57.641 368.638 57.433 361.239 57.718 C 356.61 57.896 353.666 61.435 353.005 66.715 C 354.332 66.813 355.654 66.91 357.441 67.196 C 364.883 67.271 372.325 67.351 379.767 67.397 C 379.997 67.398 380.23 67.05 380.668 66.468 Z" style="transform-origin: -4px 47.118px;"/>
  <path fill="#0593BF" opacity="1.000000" stroke="none" d="M 146.793 46.991 C 147.859 43.522 149.182 40.088 150.694 36.538 C 155.657 36.012 160.446 35.723 165.202 35.161 C 170.947 34.484 176.669 33.608 182.393 32.761 C 189.014 31.782 195.63 30.767 202.241 29.721 C 210.052 28.485 217.897 27.415 225.653 25.891 C 240.042 23.065 254.403 20.081 268.725 16.929 C 277.406 15.019 285.981 12.629 294.63 10.562 C 295.942 10.248 297.393 10.518 298.943 11.168 C 294.348 12.787 289.824 14.649 285.148 15.981 C 266.79 21.209 248.487 26.693 229.962 31.262 C 214.553 35.063 198.892 37.873 183.286 40.823 C 172.034 42.949 160.689 44.58 149.389 46.448 C 148.599 46.578 147.83 46.83 146.793 46.991 Z" style="transform-origin: -4px 47.118px;"/>
  <path fill="#0A2E71" opacity="1.000000" stroke="none" d="M 418.342 49.621 C 418.999 50.405 419.884 51.091 420.272 51.991 C 421.762 55.448 423.093 58.973 424.656 62.904 C 428.369 60.003 432.13 57.869 434.819 54.796 C 440.209 48.638 446.963 50.227 454.025 51.014 C 440.864 61.458 427.703 71.902 414.001 82.775 C 410.066 71.728 406.325 61.225 402.84 50.477 C 408.178 50.029 413.26 49.826 418.342 49.621 Z" style="transform-origin: -4px 47.118px;"/>
  <path fill="#0A2E71" opacity="1.000000" stroke="none" d="M 221.437 81.805 C 218.584 81.806 216.016 81.806 212.859 81.806 C 216.174 73.407 219.309 65.463 222.641 57.024 C 217.798 57.024 213.424 57.024 208.514 57.024 C 209.466 54.643 210.105 52.722 211.016 50.94 C 211.342 50.301 212.323 49.605 213.009 49.601 C 225.398 49.541 237.788 49.581 250.178 49.618 C 250.451 49.618 250.722 49.821 251.259 50.036 C 250.568 51.772 250.075 53.566 249.155 55.106 C 248.65 55.951 247.459 56.827 246.521 56.893 C 243.336 57.116 240.123 57.058 236.925 56.961 C 235.044 56.904 234.02 57.432 233.292 59.38 C 230.777 66.111 227.952 72.726 225.339 79.421 C 224.652 81.185 223.712 82.193 221.437 81.805 Z" style="transform-origin: -4px 47.118px;"/>
  <path fill="#153878" opacity="1.000000" stroke="none" d="M 15.346 92.453 C 17.104 92.516 18.718 92.949 20.331 92.952 C 45.777 92.994 71.224 92.974 96.671 92.993 C 98.211 92.994 99.75 93.198 101.522 93.403 C 79.726 93.531 57.697 93.568 35.668 93.597 C 29.669 93.606 23.67 93.632 17.672 93.55 C 16.845 93.538 16.025 92.946 15.346 92.453 Z" style="transform-origin: -4px 47.118px;"/>
  <path fill="#163878" opacity="1.000000" stroke="none" d="M 92.83 73.665 C 91.515 73.874 89.911 74.326 88.306 74.329 C 66.544 74.373 44.782 74.355 22.736 74.352 C 23.729 74.147 25.006 73.767 26.285 73.764 C 48.369 73.715 70.455 73.712 92.83 73.665 Z" style="transform-origin: -4px 47.118px;"/>
  <path fill="#133777" opacity="1.000000" stroke="none" d="M 398.304 50.216 C 384.279 50.207 370.243 50.171 355.91 50.132 C 356.593 49.93 357.57 49.56 358.549 49.558 C 371.473 49.53 384.398 49.553 397.687 49.743 C 398.111 50.014 398.172 50.105 398.232 50.196 C 398.232 50.196 398.292 50.188 398.304 50.216 Z" style="transform-origin: -4px 47.118px;"/>
  <path fill="#1899C3" opacity="1.000000" stroke="none" d="M 38.603 54.13 C 50.489 53.906 62.532 53.901 74.867 53.9 C 74.725 54.096 74.29 54.454 73.856 54.453 C 62.157 54.441 50.458 54.392 38.603 54.13 Z" style="transform-origin: -4px 47.118px;"/>
  <path fill="#153879" opacity="1.000000" stroke="none" d="M 163.934 2.816 C 154.172 2.991 144.392 2.974 134.317 2.956 C 134.276 2.797 134.531 2.504 134.786 2.505 C 144.497 2.528 154.207 2.578 163.934 2.816 Z" style="transform-origin: -4px 47.118px;"/>
  <path fill="#143778" opacity="1.000000" stroke="none" d="M 418.055 49.593 C 413.26 49.826 408.178 50.029 402.773 50.242 C 402.449 50.251 402.471 50.193 402.594 50.059 C 402.767 49.828 402.816 49.729 402.865 49.631 C 407.832 49.608 412.8 49.586 418.055 49.593 Z" style="transform-origin: -4px 47.118px;"/>
  <path fill="#0A2E71" opacity="1.000000" stroke="none" d="M 402.754 49.646 C 402.816 49.729 402.767 49.828 402.625 50.063 C 402.569 50.02 402.606 49.841 402.754 49.646 Z" style="transform-origin: -4px 47.118px;"/>
  <path fill="#092E71" opacity="1.000000" stroke="none" d="M 398.288 50.103 C 398.172 50.105 398.111 50.014 397.976 49.776 C 398.048 49.757 398.196 49.883 398.288 50.103 Z" style="transform-origin: -4px 47.118px;"/>
  <path fill="#163573" opacity="1.000000" stroke="none" d="M 357.208 67.101 C 364.613 66.969 372.251 66.931 380.174 66.879 C 380.23 67.05 379.997 67.398 379.767 67.397 C 372.325 67.351 364.883 67.271 357.208 67.101 Z" style="transform-origin: -4px 47.118px;"/>
</svg>